<?xml version="1.0" encoding="utf-8"?>
<!-- Generator: Adobe Illustrator 21.1.0, SVG Export Plug-In . SVG Version: 6.00 Build 0)  -->
<svg version="1.1" id="Layer_1" xmlns="http://www.w3.org/2000/svg" xmlns:xlink="http://www.w3.org/1999/xlink" x="0px" y="0px"
	 viewBox="0 0 192.7 93.3" style="enable-background:new 0 0 192.7 93.3;" xml:space="preserve">
<style type="text/css">
	.st0{fill:#003F1B;}
</style>
<g>
	<g>
		<path d="M9.6,82.3c-0.4,0.9-2.5,6.7-2.7,7.5c0,0.3-0.1,0.6-0.1,0.8c0,0.5,0.5,0.8,1.3,0.8h1.8c0.3,0,0.4,0.1,0.4,0.3v0.9
			c0,0.3-0.1,0.3-0.3,0.3c-0.5,0-2.1-0.1-4.3-0.1c-2.8,0-3.6,0.1-4.1,0.1c-0.2,0-0.3-0.1-0.3-0.3v-0.9c0-0.2,0.2-0.3,0.3-0.3h1.3
			c1.1,0,1.7-0.5,2.2-1.7c0.3-0.6,3-7.6,4.1-10.8c0.3-0.8,3.3-8.9,3.7-10c0.1-0.4,0.3-0.9,0-1.3c-0.1-0.2-0.3-0.3-0.3-0.5
			c0-0.1,0.1-0.3,0.3-0.3c1.1-0.2,2.7-1.4,3.2-1.9c0.2-0.2,0.3-0.3,0.5-0.3c0.2,0,0.3,0.2,0.4,0.6c0.7,2.4,3.7,10.9,4.4,13.3
			c0.9,3,3.3,10,3.9,11.1c0.6,1.3,1.6,1.7,2.6,1.7h1.3c0.2,0,0.3,0.1,0.3,0.3v1c0,0.2-0.1,0.3-0.4,0.3c-0.7,0-1.5-0.1-4.6-0.1
			c-3.2,0-4.5,0.1-5.4,0.1c-0.2,0-0.3-0.1-0.3-0.3v-0.9c0-0.2,0.1-0.3,0.3-0.3h1c1.1,0,1.4-0.4,1.1-1.4c-0.3-1.4-1.9-6.2-2.4-7.8
			H9.6z M18.5,80.9c-0.3-1.1-3.4-10.6-3.6-11.2c-0.1-0.3-0.2-0.5-0.3-0.5c-0.2,0-0.3,0.3-0.4,0.6C14,70.2,10.3,80,10.1,80.9H18.5z"
			/>
		<path d="M35.1,82.7c0-1.9-0.3-2.3-1.4-2.9L33,79.5c-0.2-0.1-0.3-0.1-0.3-0.3V79c0-0.2,0.1-0.2,0.3-0.3l3.8-1.9
			c0.2-0.1,0.4-0.2,0.5-0.2c0.2,0,0.3,0.2,0.3,0.5l0.2,2.7h0.2c1.1-1.7,2.9-3.3,4.6-3.3c1.3,0,1.9,0.8,1.9,1.7
			c0,1.1-0.9,1.9-1.6,1.9c-0.4,0-0.8-0.2-1.1-0.3c-0.3-0.2-0.8-0.3-1.3-0.3c-0.6,0-1.6,0.4-2.2,1.6c-0.2,0.4-0.4,1.1-0.4,1.2V90
			c0,1.2,0.3,1.6,1.1,1.6h1.8c0.2,0,0.3,0.1,0.3,0.3v0.7c0,0.2,0,0.3-0.2,0.3c-0.2,0-2-0.1-4-0.1c-2.4,0-4,0.1-4.2,0.1
			c-0.2,0-0.2-0.1-0.2-0.4v-0.6c0-0.3,0.1-0.3,0.4-0.3h1.5c0.6,0,0.8-0.2,0.8-0.7c0-1.3,0-2.6,0-4.6V82.7z"/>
		<path d="M49.4,72.4c0-2.5-0.4-3.1-1.8-3.5l-0.4-0.1c-0.4-0.1-0.5-0.2-0.5-0.3v-0.3c0-0.1,0.1-0.2,0.3-0.3c1.1-0.5,3.1-1.5,4-2.1
			c0.3-0.2,0.6-0.3,0.8-0.3c0.3,0,0.3,0.2,0.3,0.6c0,0.3,0,4.6,0,8v4.4c1.2-1.2,3.4-1.9,5.2-1.9c3.3,0,7,2.7,7,8.1
			c0,4.4-3.6,8.6-7.9,8.6c-2.1,0-3.6-0.5-4.5-1l-1.5,0.8c-0.2,0.1-0.3,0.2-0.5,0.1l-0.5-0.1c-0.2,0-0.2-0.1-0.2-0.3
			c0.1-0.5,0.1-3.7,0.1-6.5V72.4z M52.1,84.7c0,3.2,0.1,4.3,0.6,5.5c0.4,0.9,2,1.9,3.6,1.9c2.3,0,5.1-1.6,5.1-6.5
			c0-3.7-1.9-7.2-5.7-7.2c-1.4,0-2.8,0.5-3.6,1.4V84.7z"/>
		<path d="M71.1,90.7c-1.7-2.1-2.1-3.5-2.1-6.2c0-1.9,1-4.4,3.3-6.1c2-1.5,3.8-1.8,5.1-1.8c2.1,0,4.2,1.1,5.3,2.2
			c1.7,1.7,2.6,3.7,2.6,6.2c0,4.1-3.7,8.4-8.4,8.4C75.1,93.3,72.7,92.6,71.1,90.7z M82.1,84.6c0-4.2-3.1-6.9-5-6.9
			c-1,0-2,0.2-2.9,1.2c-1.5,1.5-2,3.1-2,6c0,2.1,0.2,3.6,1.4,5.3c0.9,1.3,2,2,3.8,2C80.2,92.1,82.1,88.6,82.1,84.6z"/>
		<path d="M92.2,82.7c0-1.9-0.3-2.3-1.4-2.9l-0.7-0.4c-0.2-0.1-0.3-0.1-0.3-0.3V79c0-0.2,0.1-0.2,0.3-0.3l3.8-1.9
			c0.2-0.1,0.4-0.2,0.5-0.2c0.2,0,0.3,0.2,0.3,0.5l0.2,2.7H95c1.1-1.7,2.9-3.3,4.6-3.3c1.3,0,1.9,0.8,1.9,1.7c0,1.1-0.9,1.9-1.6,1.9
			c-0.4,0-0.8-0.2-1.1-0.3c-0.3-0.2-0.8-0.3-1.3-0.3c-0.6,0-1.6,0.4-2.2,1.6c-0.2,0.4-0.4,1.1-0.4,1.2V90c0,1.2,0.3,1.6,1.1,1.6h1.8
			c0.2,0,0.3,0.1,0.3,0.3v0.7c0,0.2,0,0.3-0.2,0.3c-0.2,0-2-0.1-4-0.1c-2.4,0-4,0.1-4.2,0.1c-0.2,0-0.2-0.1-0.2-0.4v-0.6
			c0-0.3,0.1-0.3,0.4-0.3h1.5c0.6,0,0.8-0.2,0.8-0.7c0-1.3,0-2.6,0-4.6V82.7z"/>
		<path d="M107.4,82.7c-0.1,0.3-0.1,0.9-0.1,1.8c0,3.7,2.4,6.5,5.4,6.5c2.3,0,4-1.3,4.6-2.6c0.1-0.2,0.2-0.2,0.3-0.2l0.5,0.3
			c0.1,0,0.2,0.2,0,0.6c-0.7,1.5-2.7,4.1-6,4.1c-2.2,0-4.6-0.6-6-2.7c-1.3-1.9-1.7-3.3-1.7-6c0-1.5,0.4-4,2.4-6c1.6-1.7,3.5-2,5.4-2
			c4.4,0,5.6,4.1,5.6,5.6c0,0.5-0.5,0.6-1.1,0.6H107.4z M113.4,81.6c0.7,0,1-0.2,1-0.5c0-0.9-0.5-3.4-2.9-3.4c-1.7,0-3.3,1.1-4,3.9
			H113.4z"/>
		<path d="M127.5,88.1c0,2.8,1.3,3.3,2,3.3c0.9,0,2-0.2,2.5-0.5c0.2-0.1,0.3-0.1,0.5,0.1l0.2,0.3c0.1,0.2,0,0.3-0.1,0.4
			c-0.4,0.4-1.9,1.5-4.2,1.5c-1.9,0-3.7-1.8-3.7-3.2c0-1.6,0.1-4.9,0.1-5.4v-0.8c0-0.7,0-3.3,0.1-4.9h-2.3c-0.3,0-0.6-0.2-0.6-0.5
			c0-0.3,0.2-0.4,0.7-0.7c0.9-0.5,3.8-3.5,4.3-4.7c0.1-0.3,0.3-0.4,0.5-0.4c0.3,0,0.4,0.3,0.4,0.6l-0.2,3.7h5.3
			c0.2,0,0.3,0.2,0.3,0.3l-0.4,1.3c0,0.2-0.1,0.3-0.3,0.3h-4.9c-0.1,1.7-0.1,3.6-0.1,5.4V88.1z"/>
		<path d="M150.9,85.1c0,1.8,0,3.7,0.1,4.5c0.1,1.2,0.5,1.3,1,1.3c0.2,0,0.8,0,1.3-0.1c0.3-0.1,0.4,0,0.5,0.2l0.1,0.5
			c0,0.2,0,0.3-0.2,0.3l-4,1.3c-0.2,0.1-0.5,0.2-0.8,0.2c-0.2,0-0.3-0.1-0.3-0.5l-0.3-2.2h-0.1c-1.1,1.5-3.3,2.7-5.2,2.7
			c-1.1,0-2.3-0.1-3.6-1.7c-1.6-2-1.5-3.3-1.5-7.4v-4.4c0-1.1-0.6-1.3-1.4-1.4c-0.6,0-0.8-0.1-0.8-0.3v-0.7c0-0.2,0.1-0.3,0.4-0.3
			h3.4c0.2,0,0.4,0,0.5-0.1c0.2,0,0.3,0,0.4,0c0.3,0,0.5,0.2,0.4,0.5c0,0.3-0.2,2.1-0.2,4.4v2.7c0,1.5-0.4,4,0.8,5.7
			c1,1.4,2,1.4,3,1.4s2.5-1,3.3-1.9c0.2-0.2,0.4-0.7,0.4-1v-9.1c-0.1-1.1-0.7-1.3-1.6-1.3c-0.6,0-0.8-0.1-0.8-0.3v-0.6
			c0-0.3,0.1-0.3,0.5-0.3h3.5c0.3,0,0.5,0,0.6-0.1c0.2,0,0.3,0,0.5,0c0.2,0,0.4,0.2,0.3,0.4c0,0.3-0.2,1.3-0.2,5.1V85.1z"/>
		<path d="M170.4,83.1c0-2.8-0.5-3.5-1.1-4.1c-0.5-0.5-1.6-0.7-2.4-0.7c-1,0-2.6,0.5-3.6,2.2c-0.5,0.8-0.5,1.5-0.5,2.5v7.5
			c0,0.6,0.2,1,0.8,1h1.4c0.3,0,0.4,0.1,0.4,0.3v0.6c0,0.3,0,0.4-0.3,0.4c-0.3,0-1.4-0.1-3.5-0.1c-2,0-3.2,0.1-3.5,0.1
			c-0.2,0-0.3-0.1-0.3-0.3v-0.7c0-0.3,0.1-0.3,0.5-0.3h1.3c0.3,0,0.5-0.2,0.6-0.9c0-0.6,0-1.3,0-2v-6.8c0-0.8-0.2-1.4-1.1-1.9
			l-0.8-0.4c-0.2-0.1-0.3-0.2-0.3-0.3v-0.3c0-0.1,0.2-0.3,0.2-0.3l3.3-1.7c0.3-0.2,0.6-0.2,0.7-0.2c0.2,0,0.3,0.3,0.3,0.5l0.2,2.2
			h0.1c1.1-1.6,3.4-2.9,5.6-2.9c2,0,3.5,1.1,4.3,2.9h0.2c1.1-1.5,3.3-2.9,5.6-2.9c1.3,0,2.5,0.2,3.4,1.1c0.9,0.9,1.8,1.7,1.8,4.7
			v8.5c0,0.6,0.3,0.8,0.8,0.8h1c0.3,0,0.4,0.1,0.4,0.3v0.6c0,0.3-0.1,0.4-0.3,0.4c-0.3,0-1.3-0.1-3.2-0.1c-1.9,0-3.3,0.1-3.5,0.1
			c-0.2,0-0.3-0.1-0.3-0.4v-0.6c0-0.3,0.1-0.3,0.5-0.3h0.9c0.4,0,0.7-0.2,0.8-0.7c0.1-0.9,0.1-2.2,0.1-3.1v-5.6c0-1.3-0.2-2.4-1.1-3
			c-0.7-0.5-1.7-0.8-2.8-0.8c-1.1,0-2.7,0.9-3.3,2c-0.6,1.1-0.5,2.1-0.5,3.8v6.6c0,0.5,0.2,0.9,0.8,0.9h1.3c0.3,0,0.4,0.1,0.4,0.3
			v0.6c0,0.3-0.1,0.4-0.3,0.4c-0.3,0-1.3-0.1-3.4-0.1c-2.1,0-3.3,0.1-3.6,0.1c-0.2,0-0.3-0.1-0.3-0.4V92c0-0.3,0-0.4,0.4-0.4h1.1
			c0.6,0,0.8-0.2,0.8-0.6V83.1z"/>
	</g>
	<g>
		<path class="st0" d="M75.5,0.5c-0.1,0.2,0,0.4,0,0.5c0.1,0.1,0.2,0.2,0.3,0.4c-0.1,0.2-0.2,0.4-0.3,0.6c-0.1,0.2-0.2,0.4-0.2,0.7
			c-0.3,0.3-0.5,0.7-0.7,1.1c-0.2,0.4-0.4,0.8-0.7,1.1c-0.6,0.9-1.2,1.7-1.7,2.6c-0.5,0.8-1.1,1.6-1.6,2.3c-0.2,0.3-0.4,0.5-0.4,0.7
			c-0.1,0.2-0.2,0.4-0.4,0.5c-0.4,0.5-0.7,0.8-0.8,1.1c-0.1,0.2-0.2,0.5-0.3,0.7c-0.1,0.2-0.2,0.4-0.2,0.4c-0.1,0.1-0.1,0.2-0.1,0.2
			c0,0.1-0.1,0.2-0.2,0.3c-0.1,0.1-0.2,0.3-0.4,0.5c-0.1,0.2-0.2,0.4-0.4,0.6c-0.1,0.2-0.2,0.4-0.4,0.7c-0.3,0.4-0.5,0.8-0.7,1.2
			c-0.2,0.4-0.4,0.8-0.7,1.2c-0.1,0.3-0.2,0.5-0.4,0.6c-0.1,0.1-0.2,0.3-0.3,0.6c-0.4,0.5-0.6,0.8-0.7,0.9c-0.1,0.1-0.2,0.3-0.3,0.4
			c-0.1,0.1-0.2,0.3-0.3,0.4c-0.1,0.2-0.2,0.4-0.4,0.8c-0.2,0.5-0.3,0.8-0.4,1.1c-0.1,0.3-0.2,0.5-0.2,0.7c-0.1,0.2-0.2,0.4-0.3,0.6
			c-0.1,0.2-0.3,0.5-0.5,0.8c-0.3,0.6-0.6,1.1-0.9,1.4c-0.3,0.4-0.6,0.8-0.8,1.2c-0.2,0.3-0.4,0.5-0.4,0.6c-0.1,0.1-0.2,0.2-0.2,0.3
			s-0.2,0.2-0.2,0.3c-0.1,0.1-0.2,0.3-0.4,0.6c-0.4,0.6-0.8,1.2-1.2,1.8c-0.4,0.6-0.8,1.2-1.2,1.8c-0.3,0.4-0.5,0.8-0.7,1.2
			c-0.2,0.4-0.5,0.8-0.8,1.2c-0.2,0.7-0.6,1.2-1.2,1.7c-0.6,1.1-1.1,2.3-1.6,3.5c-0.5,1.2-0.9,2.4-1.4,3.7c-0.2,0.3-0.3,0.5-0.4,0.9
			c-0.4,0.6-0.6,0.9-0.6,1.1c0,0.1-0.1,0.2-0.2,0.4c-0.4,0.6-0.8,1.1-1,1.5c-0.3,0.4-0.5,0.8-0.8,1.2c-0.3,0.3-0.5,0.6-0.7,0.9
			c-0.2,0.3-0.4,0.6-0.5,1.1c-0.4,0.6-0.8,1.1-1.2,1.7c-0.4,0.6-0.7,1.2-1,2c-0.2,0.3-0.4,0.5-0.5,0.7c-0.1,0.2-0.2,0.4-0.4,0.7
			c-0.5,0.5-0.8,1-1,1.5c-0.9,0.9-1.8,1.7-2.6,2.6s-1.8,1.6-2.9,2.3c-0.3,0.1-0.5,0.1-0.8,0.2c-0.3,0.1-0.5,0.1-0.9,0
			c-0.3-0.1-0.6-0.2-0.9-0.3c-0.3-0.2-0.6-0.2-0.9-0.2c-0.4-0.2-0.7-0.7-1.1-1.3c-0.1-0.4-0.2-0.8-0.2-1.1c-0.1-0.3-0.1-0.6-0.2-0.9
			c-0.3-0.7-0.4-1.2-0.5-1.7c-0.1-0.6-0.1-1.2,0-1.8c0.1-0.6,0.3-1.3,0.4-2c0.2-0.7,0.4-1.5,0.6-2.2c0.2-0.8,0.3-1.5,0.4-2.2
			c0.2-1,0.4-2.1,0.6-3.1c0.2-1,0.4-2,0.6-3c0.2-0.6,0.3-1.1,0.5-1.7c0.2-0.6,0.2-1.1,0.2-1.7c0-0.3,0-0.6,0-1c0-0.3,0.1-0.7,0.1-1
			c0.3-1.5,0.7-2.9,1.3-4.3c0.5-1.4,1.1-2.8,1.6-4.2c0.1-0.3,0.2-0.6,0.3-0.9c0.1-0.3,0.2-0.7,0.2-1c0.1-0.4,0.1-0.8,0.1-1.1
			c0-0.3,0-0.7,0.1-1.1c0.1-0.2,0.1-0.4,0.1-0.5c0-0.1,0-0.3,0-0.4s0-0.3,0-0.5c0-0.2,0-0.3,0-0.5c0-0.3,0-0.5,0.1-0.8
			c0.1-0.3,0.2-0.6,0.3-0.9c0.1-0.3,0.1-0.6,0.1-0.9s0-0.7,0.1-1c-1.7,2.1-3.3,4.2-4.6,6.3c-1.4,2.1-2.8,4.2-4.3,6.2
			c-0.3,0.6-0.6,1.1-0.9,1.6c-0.4,0.5-0.7,1-1,1.5c-0.3,0.4-0.5,0.8-0.9,1.3c-0.3,0.4-0.6,0.9-0.9,1.3c-0.2,0.5-0.4,0.9-0.5,1.3
			c-0.2,0.4-0.4,0.8-0.6,1.2c-0.2,0.3-0.3,0.5-0.5,0.8c-0.2,0.3-0.4,0.5-0.5,0.8c-0.3,0.3-0.5,0.5-0.8,0.8c-0.3,0.3-0.6,0.5-0.8,0.8
			c-0.3,0.1-0.5,0.3-0.7,0.7c-0.2,0.3-0.4,0.7-0.7,1.1s-0.5,0.8-0.7,1.1c-0.2,0.4-0.4,0.6-0.5,0.8c-0.5,1.1-1,2.2-1.6,3.2
			c-0.6,1-1.2,2-1.8,3c-0.2,0.3-0.4,0.6-0.6,1c-0.2,0.3-0.4,0.7-0.7,1c-0.5,0.8-1,1.5-1.3,2.1c-0.3,0.7-0.8,1.2-1.4,1.7
			c-0.1,0.3-0.2,0.5-0.4,0.7c-0.2,0.2-0.3,0.4-0.3,0.7c-0.3,0.3-0.6,0.5-1.1,0.7s-0.9,0.4-1.4,0.6c-0.4,0.2-0.8,0.4-1.3,0.5
			c-0.5,0.2-1,0.1-1.6-0.2c-0.1-0.1-0.2-0.2-0.3-0.3c-0.1-0.2-0.2-0.2-0.4-0.2c-0.1-0.3-0.3-0.5-0.5-0.7c-0.2-0.1-0.5-0.3-0.7-0.5
			c-0.1-0.1-0.2-0.2-0.3-0.4s-0.2-0.3-0.3-0.4c-0.3-0.4-0.6-0.8-0.9-1.2c-0.3-0.4-0.5-0.9-0.7-1.5c0-0.1,0-0.2,0-0.4
			c0-0.2,0-0.4,0-0.5c-0.1-0.3-0.1-0.5-0.2-0.7c-0.1-0.2-0.1-0.5-0.1-0.8c0.1-0.4,0.1-0.8,0.3-1.2c0.1-0.4,0.2-0.7,0.4-1.1
			c0.2-0.8,0.5-1.5,0.7-2.1c0.3-0.7,0.5-1.4,0.7-2.2c0.2-0.7,0.4-1.2,0.6-1.6c0.2-0.5,0.3-0.8,0.4-1.1c0.1-0.3,0.2-0.5,0.3-0.7
			c0.1-0.2,0.2-0.4,0.3-0.7s0.2-0.6,0.4-1c0.2-0.8,0.4-1.6,0.6-2.2c0.2-0.7,0.5-1.3,0.7-2.1c0.2-0.6,0.4-1.5,0.8-2.5
			c0.4-1,0.7-2.1,1.1-3.2c0.4-1.1,0.8-2.1,1.1-3.2c0.3-1,0.6-1.9,0.7-2.5c0.2-0.3,0.3-0.6,0.4-0.9c0.1-0.3,0.2-0.6,0.3-0.9
			c0.2-0.8,0.5-1.7,0.9-2.7c0.4-1,0.7-2.1,1.1-3.2c0.4-1.1,0.7-2.2,1.1-3.2c0.3-1,0.6-2,0.8-2.8c0.2-0.5,0.4-1.1,0.4-1.8
			c0.1-0.8,0.1-1.5,0.1-2.2c-1.3,0.9-2.4,1.7-3.2,2.5c-0.8,0.8-1.7,1.5-2.5,2.1c-0.2,0.3-0.5,0.6-0.8,0.8c-0.3,0.2-0.6,0.5-0.9,0.9
			c-0.3,0.1-0.5,0.2-0.6,0.4c-0.2,0.2-0.4,0.3-0.6,0.4c-0.3,0.1-0.6,0.2-0.9,0.2c-0.4,0.1-0.7,0.1-1,0.1c-0.2,0-0.3,0-0.5-0.1
			c-0.2-0.1-0.3-0.1-0.5-0.1c-0.3,0-0.6,0.1-0.9,0.2c-0.4,0.2-0.7,0.3-0.9,0.4c-0.2,0.1-0.4,0.2-0.5,0.3c-0.1,0.1-0.3,0.2-0.5,0.3
			c-0.3,0.1-0.5,0.1-0.7,0c-0.2-0.1-0.4-0.1-0.7-0.2c-0.2-0.1-0.4-0.1-0.5,0c-0.2,0-0.3-0.1-0.5-0.3c0.1-0.3,0.2-0.5,0.4-0.6
			c0.2-0.2,0.3-0.4,0.4-0.6C1.3,15.4,1.7,15,2,14.5c0.3-0.1,0.5-0.2,0.6-0.4c0.2-0.2,0.3-0.4,0.5-0.5c0.2-0.2,0.3-0.3,0.5-0.4
			C4,13,4.1,12.8,4.3,12.6c0.6-0.3,1.1-0.6,1.5-1.1c0.4-0.4,0.9-0.8,1.5-1.1c0.5-0.3,0.9-0.6,1.2-0.8c0.3-0.2,0.6-0.4,0.9-0.6
			C9.7,8.9,9.9,8.7,10,8.6c0.2-0.2,0.4-0.4,0.6-0.5c0.5-0.4,1-0.8,1.5-1.1c0.5-0.3,0.9-0.7,1.4-1.1c0.5-0.7,1.1-1.2,1.6-1.6
			s1.1-0.6,1.7-0.9c0.3-0.2,0.5-0.3,0.8-0.4c0.3-0.1,0.5-0.2,0.9-0.1c0.2,0,0.3,0,0.4,0c0.1,0,0.3,0,0.4,0c0.5,0,0.9,0.1,1.1,0.3
			c0.2,0.2,0.5,0.4,0.9,0.6c0.2,0.2,0.4,0.3,0.6,0.4c0.2,0.1,0.3,0.3,0.4,0.6c0.2,0,0.3,0,0.4,0.1c0.1,0.1,0.2,0.2,0.4,0.3
			c0.1,0.3,0.2,0.6,0.4,0.9c0.2,0.3,0.2,0.6,0.2,1.1c-0.1,0.3-0.1,0.5-0.2,0.7c-0.1,0.2-0.1,0.5-0.2,0.7c-0.2,0.4-0.4,0.7-0.5,0.9
			c-0.1,0.3-0.2,0.5-0.3,0.8c-0.1,0.2-0.1,0.4-0.1,0.7c0,0.3,0,0.5,0,0.8c-0.1,0.5-0.2,1-0.4,1.6c-0.2,0.5-0.3,1.1-0.4,1.6
			c-0.1,0.2-0.2,0.3-0.2,0.5c0,0.2,0,0.4-0.1,0.5c-0.3,0.6-0.5,1.1-0.7,1.5c-0.2,0.4-0.3,0.8-0.5,1.2c-0.2,0.4-0.3,0.9-0.5,1.2
			s-0.3,0.7-0.3,0.8c-0.1,0.4-0.2,0.8-0.4,1.1c-0.1,0.3-0.2,0.7-0.4,1.1c-0.1,0.4-0.2,0.9-0.3,1.4c-0.1,0.5-0.2,1-0.3,1.4
			c-0.2,0.5-0.3,0.9-0.4,1.4c-0.1,0.5-0.2,0.9-0.4,1.4c-0.1,0.2-0.2,0.5-0.4,1.2c-0.2,0.6-0.4,1.3-0.6,2c-0.2,0.7-0.4,1.3-0.6,2
			c-0.2,0.6-0.3,1-0.3,1.2c-0.1,0.2-0.1,0.3,0,0.5c0,0.2,0,0.3-0.2,0.4c0,0.4-0.1,0.8-0.3,1.1c-0.2,0.3-0.4,0.7-0.6,1.1
			c-0.2,0.4-0.3,0.8-0.4,1.2c-0.1,0.4-0.3,0.8-0.5,1.1c-0.3,1-0.6,1.9-0.9,2.6c-0.3,0.8-0.6,1.5-0.8,2.2c-0.3,0.7-0.5,1.5-0.7,2.3
			c-0.2,0.8-0.5,1.7-0.7,2.8c0.1,0.1,0.2,0.2,0.4,0.4c0.1,0.1,0.2,0.2,0.4,0.2c0.2,0,0.3,0,0.5-0.1c0.2-0.1,0.4-0.2,0.5-0.3
			c0.2-0.1,0.4-0.2,0.6-0.3c0.2-0.1,0.3-0.2,0.4-0.3c0.1-0.1,0.2-0.2,0.2-0.4c0.1-0.2,0.1-0.3,0.2-0.4c0.3-0.4,0.5-0.7,0.5-0.9
			c0.1-0.2,0.2-0.3,0.3-0.4c0.1-0.6,0.3-1,0.7-1.3c0.3-0.3,0.6-0.7,0.7-1.2c0.2-0.1,0.3-0.3,0.3-0.5c0.1-0.2,0.2-0.4,0.3-0.5
			c0.1-0.3,0.3-0.6,0.5-1.1c0.2-0.4,0.5-0.9,0.7-1.4c0.3-0.5,0.5-0.9,0.7-1.3c0.2-0.4,0.4-0.8,0.6-1c0.1-0.4,0.2-0.7,0.4-1
			c0.2-0.3,0.4-0.6,0.6-1l0.9-1.4c0.1-0.2,0.3-0.4,0.5-0.6c0.2-0.2,0.4-0.4,0.5-0.6c0.1-0.2,0.2-0.4,0.3-0.5
			c0.1-0.1,0.2-0.3,0.3-0.4c0.2-0.2,0.3-0.4,0.5-0.6c0.2-0.2,0.3-0.4,0.5-0.6c0.2-0.2,0.3-0.4,0.5-0.6c0.2-0.2,0.4-0.4,0.6-0.6
			c0.4-0.4,0.7-0.9,0.9-1.3c0.2-0.5,0.5-0.9,0.8-1.2c0.3-0.7,0.6-1.3,0.9-1.9c0.4-0.6,0.8-1.1,1.2-1.7c0.3-0.6,0.6-1.2,0.9-1.8
			c0.3-0.6,0.7-1.2,1.1-1.8c0.3-0.7,0.7-1.2,1.2-1.7c0.3-0.6,0.5-0.9,0.5-0.9c0.6-0.9,1.1-1.7,1.7-2.5c0.6-0.8,1.2-1.6,1.8-2.5
			c0.3-0.3,0.5-0.6,0.7-0.9c0.2-0.3,0.4-0.6,0.7-0.9c0.4-0.7,0.8-1.4,1.2-1.9c0.4-0.5,0.8-1,1.2-1.4c0.6-0.4,1-0.7,1.2-0.7
			c0.2-0.1,0.4-0.1,0.5-0.2c0.4-0.3,0.7-0.5,0.8-0.6c0.1-0.1,0.2-0.2,0.4-0.4c0.1-0.1,0.2-0.2,0.3-0.4c0.1-0.1,0.2-0.3,0.2-0.4
			C42.9,6.1,43,6,43.2,5.9c0.1-0.1,0.2-0.2,0.4-0.4C43.8,5.2,44,5,44.2,4.7c0.2-0.3,0.5-0.3,0.9,0c0.2,0.1,0.4,0.3,0.6,0.7
			c0.1,0.1,0.2,0.2,0.4,0.4c0.1,0.2,0.2,0.4,0.3,0.5c0.1,0.3,0,0.6,0,0.9c-0.1,0.3-0.1,0.7,0,1c0.2,0.6,0.4,1.1,0.6,1.7
			c0.2,0.6,0.3,1.3,0.2,2.1c-0.2,0.4-0.4,0.8-0.4,1.3c-0.1,0.5-0.2,1-0.3,1.5c-0.2,0.6-0.3,1.1-0.5,1.5c-0.2,0.4-0.2,0.7-0.2,1
			c-0.2,0.4-0.3,0.9-0.4,1.3c-0.1,0.5-0.1,0.9-0.2,1.3c-0.2,0.8-0.4,1.5-0.6,2.2c-0.3,0.7-0.4,1.4-0.5,2.2c-0.1,0.7-0.2,1.6-0.5,2.6
			c-0.3,1-0.4,1.9-0.5,2.7c-0.1,0.4-0.1,0.7,0,0.9s0.1,0.5,0.1,0.8C43,32.3,43,32.9,43,33.3c0,0.3,0,0.7-0.1,1.1
			c-0.1,0.3-0.1,0.5-0.2,0.8c-0.1,0.3-0.1,0.6-0.2,0.8c-0.1,0.4-0.2,0.7-0.2,1.1c-0.1,0.3-0.2,0.6-0.3,0.9c-0.1,0.6-0.2,1.3-0.3,1.9
			c-0.1,0.7-0.2,1.2-0.4,1.8c0.1,0.2,0,0.4,0,0.6c-0.1,0.2-0.1,0.4-0.2,0.6C41,43,40.9,43.3,41,43.6c0,0.3,0,0.6-0.1,0.9
			c-0.1,0.3-0.1,0.6-0.1,0.9c0,0.3-0.1,0.6-0.2,0.9c-0.3,0.7-0.4,1.2-0.4,1.6c0,0.4,0,0.7-0.2,0.9c0.1,0.4,0,0.8-0.3,1.3
			c-0.2,0.4-0.3,0.9-0.2,1.3c0.3-0.2,0.5-0.4,0.6-0.7c0.2-0.3,0.3-0.5,0.5-0.8c0.2-0.3,0.3-0.5,0.5-0.7c0.2-0.2,0.4-0.4,0.6-0.7
			c0.4-0.4,0.8-0.9,1.1-1.5c0.3-0.6,0.6-1.1,0.9-1.7c0.1-0.2,0.2-0.4,0.4-0.7c0.1-0.3,0.2-0.6,0.4-0.9c0.5-0.7,0.9-1.6,1.4-2.7
			c0.1-0.2,0.2-0.4,0.3-0.6c0.1-0.2,0.1-0.4,0.2-0.6c0.2-0.5,0.3-0.9,0.4-1.4c0.1-0.5,0.2-0.9,0.4-1.4c0.1-0.2,0.2-0.4,0.3-0.6
			c0.1-0.2,0.2-0.4,0.3-0.6c0.3-0.5,0.5-1,0.8-1.5c0.3-0.5,0.6-0.9,0.9-1.4c0.4-0.9,0.8-1.5,1-2c0.3-0.4,0.5-0.8,0.7-1.2
			c0.2-0.4,0.5-0.8,0.7-1.3c0.3-0.4,0.5-1,0.9-1.7c0.2-0.1,0.3-0.2,0.4-0.4c0.1-0.2,0.2-0.4,0.3-0.5c0.2-0.6,0.3-1.1,0.5-1.4
			c0.2-0.4,0.4-0.8,0.5-1.2c0.2-0.1,0.3-0.3,0.4-0.5c0.1-0.2,0.2-0.4,0.4-0.5c0.2-0.5,0.4-0.9,0.7-1.2c0.2-0.4,0.5-0.8,0.7-1.2
			c0.2-0.3,0.4-0.6,0.5-0.7c0.1-0.2,0.2-0.4,0.3-0.6c0.3-0.6,0.5-1,0.5-1c0.4-0.5,0.7-0.8,0.7-0.9c0.1-0.1,0.1-0.2,0.1-0.3
			c0-0.1,0.1-0.2,0.1-0.2c0.1-0.1,0.2-0.2,0.3-0.4c0.2-0.4,0.3-0.6,0.4-0.7c0.1-0.1,0.1-0.2,0.2-0.3c0.1-0.1,0.1-0.2,0.2-0.3
			c0.1-0.1,0.2-0.4,0.4-0.7c0.4-0.6,0.7-0.9,0.7-1.1c0.1-0.2,0.3-0.5,0.6-1c0.1-0.1,0.2-0.3,0.2-0.5c0.1-0.2,0.1-0.4,0.2-0.5
			c0.5-0.6,0.8-1,0.9-1.2c0.1-0.2,0.3-0.4,0.4-0.6c0.3-0.4,0.5-0.7,0.8-1.1c0.3-0.4,0.5-0.8,0.8-1.2c0.3-0.3,0.5-0.5,0.8-0.7
			c0.3-0.2,0.5-0.4,0.8-0.7c0.2,0,0.4-0.1,0.6-0.2c0.2-0.2,0.4-0.3,0.5-0.5c0.6-0.2,1.2-0.4,1.6-0.9c0.4-0.4,0.9-0.8,1.4-1.2
			c0.4-0.3,0.7-0.5,1.1-0.8c0.3-0.3,0.6-0.6,0.9-0.9c0.5-0.4,1-0.7,1.6-0.7C74.8,0,75.2,0.1,75.5,0.5z"/>
		<path class="st0" d="M62.4,55.2c0.5-0.2,1-0.3,1.7-0.2c0.7,0.1,1.2-0.1,1.6-0.3c0.2-0.2,0.4-0.3,0.5-0.5s0.3-0.2,0.5-0.2
			c0.8-0.3,1.5-0.6,2.1-0.9c0.6-0.3,1.2-0.5,1.9-0.7c0.2-0.1,0.4-0.2,0.6-0.3s0.4-0.3,0.5-0.4c0.8-0.3,1.4-0.5,1.8-0.8
			c0.4-0.3,0.7-0.5,1.1-0.8c0.3-0.3,0.7-0.5,1-0.8c0.3-0.3,0.8-0.6,1.3-1.1c0.7-0.4,1.3-0.8,1.8-1.1c0.5-0.3,1-0.7,1.6-1.2
			c0.1-0.3,0.2-0.5,0.4-0.6c0.2-0.1,0.3-0.3,0.4-0.5c0.9,0,1.5,0.4,1.6,1.1c-0.3,0.6-0.6,1-1.1,1.4c-0.4,0.4-0.8,0.8-1.2,1.2
			c-0.4,0.3-0.8,0.5-1,0.7c-0.3,0.2-0.5,0.5-0.8,0.9c-0.1,0-0.2,0.1-0.5,0.4C78.1,50.9,78,51,77.9,51c-0.3,0.4-0.5,0.6-0.7,0.7
			c-0.1,0.1-0.2,0.2-0.3,0.2c-0.1,0-0.2,0.1-0.3,0.2c-0.1,0.1-0.4,0.3-0.7,0.6c-0.4,0.6-0.8,1-1.4,1.4c-1.1,1-2.3,1.9-3.6,2.7
			c-1.3,0.8-2.4,1.5-3.5,2.2c-0.2,0.1-0.4,0.2-0.5,0.4s-0.3,0.4-0.5,0.5c-0.3,0.2-0.7,0.4-1.2,0.6c-0.5,0.2-1,0.4-1.4,0.5
			c-0.3,0.2-0.6,0.4-0.9,0.5c-1.1,0.1-2-0.1-2.7-0.5c-0.7-0.4-1.2-0.7-1.6-0.9c-0.4-0.2-0.7-0.5-0.9-1c-0.6-0.3-0.9-0.7-1.1-1.4
			c-0.1-0.7-0.3-1.4-0.4-2.1c-0.1-0.3-0.1-0.6-0.2-0.9c-0.1-0.3-0.1-0.7,0-1.1c0.1-0.6,0.2-1.2,0.2-1.8c0.1-0.7,0.2-1.2,0.4-1.7
			c0.3-0.6,0.4-1.1,0.4-1.7c0-0.6,0.2-1.1,0.4-1.7c0.3-0.5,0.5-0.8,0.4-0.9c0-0.1,0-0.1,0-0.2c0.1-0.2,0.2-0.3,0.4-0.5
			c0.1-0.2,0.2-0.3,0.4-0.5l0.5-1.2c0.2-0.4,0.4-0.7,0.7-1.1c0.3-0.4,0.5-0.8,0.6-1.3c0.1-0.3,0.2-0.6,0.4-0.9
			c0.2-0.3,0.4-0.5,0.6-0.9c0.2-0.3,0.3-0.6,0.4-1c0.1-0.3,0.2-0.7,0.4-1.1c0.2-0.4,0.4-0.8,0.6-1.2c0.2-0.4,0.5-0.8,0.7-1.2
			c0.2-0.4,0.4-0.7,0.5-0.9c0.2-0.2,0.5-0.3,0.9-0.4c0.2-0.1,0.4,0,0.7,0c0.3,0.1,0.5,0.1,0.8,0c0.7-0.3,1.1-0.5,1.4-0.5
			c0.3,0,0.4-0.1,0.5-0.2c0.6,0.1,1,0.2,1.2,0.5c0.3,0.3,0.6,0.6,0.9,0.9c-0.3,1.5-0.7,2.7-1.1,3.5c-0.4,0.8-0.8,1.7-1.3,2.5
			c-0.3,0.4-0.5,0.9-0.8,1.4c-0.3,0.5-0.5,1-0.7,1.4c-0.3,0.6-0.5,1.1-0.8,1.5c-0.3,0.4-0.5,1-0.7,1.5c-0.1,0.3-0.2,0.5-0.4,0.7
			c-0.1,0.2-0.2,0.5-0.4,0.7c-0.1,0.4-0.2,0.7-0.4,1c-0.2,0.3-0.4,0.6-0.5,0.8c-0.2,0.3-0.3,0.6-0.5,0.9s-0.3,0.7-0.4,1
			c-0.3,0.6-0.4,1-0.5,1.1c-0.1,0.1-0.1,0.2-0.2,0.4c-0.1,0.6-0.3,1-0.5,1.4c-0.2,0.4-0.1,0.6,0.2,0.8L62.4,55.2z M74.5,20.7
			c0.1,0.2,0.2,0.3,0.2,0.5s0.1,0.3,0.2,0.4c-0.1,0.5-0.2,1-0.3,1.4c-0.1,0.5-0.1,1-0.1,1.4c0,0.2,0.1,0.4,0.2,0.5
			c0.1,0.2,0.2,0.3,0.2,0.5c-0.3,0.6-0.5,1-0.6,1.1c-0.1,0.1-0.2,0.2-0.2,0.4c-0.3,0.1-0.5,0.3-0.6,0.5c-0.1,0.2-0.4,0.3-0.7,0.3
			c-0.1,0.2-0.2,0.3-0.4,0.4c-0.1,0.1-0.2,0.2-0.3,0.4c-0.8,0.4-1.8,0.3-2.8-0.1c-0.3-0.5-0.6-0.8-1.1-1c-0.7-1-0.7-2.2-0.1-3.5
			c0.1-0.3,0.2-0.5,0.4-0.8c0.1-0.3,0.2-0.5,0.4-0.6c0.6-0.4,1-0.7,1.2-0.8c0.2-0.1,0.4-0.2,0.7-0.4s0.5-0.3,0.8-0.4
			c0.1-0.1,0.2-0.1,0.4-0.1c0.2,0,0.4-0.1,0.6-0.2c0.2-0.1,0.4-0.1,0.5-0.2c0.2-0.1,0.3-0.1,0.5-0.1L74.5,20.7z"/>
		<path class="st0" d="M102.5,41.2c0.6,0.2,0.9,0.3,1.1,0.5c0.2,0.2,0.3,0.4,0.3,0.6c-0.4,0.6-0.7,1-0.7,1.1
			c-0.1,0.2-0.2,0.3-0.5,0.4c-0.7,1-1.4,2-2.3,2.8c-0.9,0.8-1.7,1.7-2.4,2.7c-0.3,0.3-0.5,0.5-0.7,0.8c-0.2,0.3-0.4,0.5-0.7,0.8
			c-0.6,0.4-1.1,0.9-1.6,1.4c-0.5,0.5-1,1-1.5,1.4c-0.3,0.2-0.5,0.4-0.7,0.6c-0.2,0.2-0.5,0.4-0.7,0.7c-0.3,0.3-0.5,0.5-0.7,0.6
			c-0.2,0.2-0.4,0.3-0.7,0.5c-0.3,0.4-0.6,0.7-0.9,1.1c-0.3,0.4-0.6,0.8-0.9,1.2c-0.6,0.3-1.1,0.6-1.6,0.9s-1,0.7-1.6,0.9
			c-0.3,0.2-0.5,0.4-0.7,0.7c-0.2,0.3-0.5,0.6-0.9,0.7c-0.4,0.2-0.9,0.2-1.3,0.1s-0.9-0.2-1.2-0.4c-0.3-0.2-0.5-0.3-0.6-0.4
			c-0.2-0.1-0.3-0.1-0.4-0.1c-0.5-0.7-0.8-1.4-1-2.2c-0.2-0.8-0.4-1.7-0.7-2.5c-0.1-0.3-0.2-0.5-0.2-0.8c-0.1-0.3-0.1-0.6-0.2-1
			c-0.1-0.2-0.1-0.4-0.1-0.6c0-0.2-0.1-0.4-0.2-0.7c-0.1-0.3-0.2-0.5-0.3-0.8c-0.1-0.3-0.2-0.6-0.2-0.9c-0.1-0.6-0.1-1.2-0.1-1.8
			c0-0.6,0.1-1.2,0.2-1.8c0.3-1.7,0.8-3.4,1.4-4.9c0.6-1.6,1.2-3,1.8-4.5c0.1-0.6,0.2-1.1,0.4-1.5c0.2-0.4,0.4-0.9,0.5-1.4
			c0.3-0.4,0.4-0.8,0.5-1.2c0.1-0.5,0.2-0.9,0.4-1.4c0.2-0.4,0.4-0.9,0.6-1.4c0.2-0.5,0.4-1,0.5-1.4c0.2-0.5,0.3-1,0.4-1.6
			c0.1-0.5,0.3-1,0.5-1.4c0.4-1.1,0.8-2.1,1.2-3.1c0.4-1,0.8-2,1.2-3c0.1-0.3,0.2-0.6,0.3-0.9c0.1-0.3,0.3-0.6,0.5-0.9
			c0.1-0.3,0.2-0.6,0.4-0.8s0.3-0.5,0.5-0.7c0-0.3,0.1-0.5,0.3-0.6c0.2-0.1,0.3-0.3,0.4-0.5c0.3-0.4,0.5-0.8,0.6-1.3
			c0.1-0.4,0.3-0.8,0.6-1.2l0.9-1.2c0.1-0.2,0.2-0.4,0.3-0.6c0.1-0.2,0.3-0.4,0.5-0.5c0.6-0.9,1.2-1.9,1.9-2.8
			c0.7-0.9,1.4-1.9,2.1-3c0.5-0.7,1-1.4,1.6-2.1c0.6-0.7,1.2-1.3,1.8-1.9c0.2-0.3,0.5-0.5,0.7-0.9c0.3-0.3,0.6-0.5,0.9-0.5
			c0.5-0.1,1,0,1.6,0.2c0.2,0.3,0.3,0.5,0.4,0.8c0.1,0.3,0.2,0.6,0.4,1c0.1,1.6,0.1,3.2-0.2,4.7c-0.2,1.5-0.4,3-0.7,4.5
			c-0.1,0.3-0.1,0.5,0,0.7c0,0.2,0,0.5,0,0.7c-0.1,0.3-0.2,0.7-0.4,1.2c-0.2,0.5-0.3,1-0.4,1.4c0,0.7-0.2,1.4-0.5,2
			c-0.3,0.6-0.5,1.1-0.6,1.7c-0.2,0.1-0.2,0.3-0.3,0.5c0,0.2-0.1,0.4-0.3,0.5c-0.1,0.6-0.3,1.1-0.5,1.6s-0.4,0.9-0.6,1.4
			c-0.8,1.1-1.6,2.1-2.4,3.2c-0.8,1-1.6,2.1-2.3,3.2c-0.9,1.4-1.8,2.7-2.9,3.9s-2,2.6-2.9,3.9c-0.7,0.6-1.2,1.2-1.7,2
			c-0.5,0.7-1.1,1.4-1.8,2c-0.3,1-0.5,2.2-0.7,3.4c-0.2,1.2-0.5,2.5-0.7,3.7c-0.1,0.4-0.1,0.7-0.2,1.1c-0.1,0.3-0.2,0.7-0.3,1.1
			C83,51,83,51.4,83,51.9c0.1,0.5,0,0.9-0.2,1.3c0.1,0.3,0.2,0.6,0.2,0.9c0,0.3,0.1,0.6,0.3,0.9c0.1,0.2,0.2,0.3,0.4,0.5
			c0.2,0.2,0.4,0.2,0.5,0.2c0.4-0.2,0.6-0.3,0.6-0.3c0.1,0,0.1,0,0.2,0c0.3-0.2,0.5-0.4,0.8-0.6c0.3-0.3,0.5-0.5,0.7-0.7
			c0.3-0.1,0.5-0.2,0.6-0.4c0.1-0.1,0.3-0.2,0.4-0.4c0.2-0.1,0.3-0.2,0.4-0.2c0.1-0.1,0.2-0.1,0.4-0.2c0.7-0.8,1.4-1.4,2.1-1.8
			c0.7-0.4,1.2-0.9,1.6-1.4c0.5-0.3,1-0.6,1.4-0.9c0.3-0.2,0.6-0.4,0.8-0.7c0.2-0.3,0.5-0.5,0.9-0.7c0.1-0.2,0.2-0.3,0.3-0.4
			c0.1-0.1,0.2-0.2,0.3-0.4c0.6-0.4,1.2-0.8,1.8-1.2c0.6-0.4,1.2-0.8,1.9-1.2c0.1-0.3,0.3-0.5,0.5-0.6s0.4-0.3,0.6-0.5
			s0.3-0.3,0.4-0.5c0.1-0.2,0.3-0.3,0.5-0.4c0.1-0.3,0.2-0.4,0.4-0.5C102.1,41.6,102.3,41.4,102.5,41.2z M98.2,12
			c-0.5,0.1-0.8,0.3-1,0.7c-0.2,0.4-0.4,0.8-0.5,1.2c-0.2,0.4-0.4,0.7-0.5,0.9c-0.1,0.2-0.2,0.5-0.1,0.9c-1.6,2.7-3.1,5.4-4.4,8.4
			c-1.3,2.9-2.7,5.9-4,8.8c1-1,2-2.3,2.9-3.7c0.9-1.5,1.9-2.7,2.9-3.8c0.7-1.8,1.5-3.4,2.4-5c0.9-1.5,1.6-3.3,2-5.2
			c-0.2-0.6-0.2-1.2,0.1-1.7C98.2,13.2,98.3,12.7,98.2,12L98.2,12z"/>
		<path class="st0" d="M130.8,41.7c0.5,0.6,0.8,1.1,0.7,1.3c0,0.3,0,0.5,0,0.9c-0.3,0.3-0.5,0.6-0.6,1c-0.2,0.3-0.4,0.6-0.7,0.9
			c-0.3,0.2-0.5,0.4-0.8,0.4c-0.3,0.1-0.5,0.2-0.7,0.5c-0.3,0.1-0.6,0.2-0.8,0.4c-0.2,0.2-0.5,0.2-0.9,0.2c-1.2,1.2-2.4,2.3-3.3,3
			c-1,0.8-2,1.5-3,2.3c-0.8,0.7-1.6,1.3-2.5,1.9c-0.9,0.6-1.7,1.1-2.6,1.7c-0.3,0.3-0.5,0.5-0.7,0.7c-0.2,0.2-0.5,0.4-0.8,0.6
			c-0.6,0.6-1.3,1.2-1.9,1.7c-0.7,0.5-1.3,1-1.8,1.5c-0.6,0.4-1.2,0.7-1.8,0.9c-0.7,0.2-1.3,0.4-1.8,0.6c-1,0.4-1.7,0.5-2.3,0.2
			c-0.6,0.1-1.1,0.2-1.4,0.3s-0.9,0-1.4-0.1c-0.2-0.1-0.3-0.1-0.5-0.2c-0.2-0.1-0.3-0.2-0.5-0.3c-0.5-0.2-0.9-0.4-1.2-0.7
			c-0.3-0.2-0.5-0.5-0.7-0.7c-0.2-0.2-0.3-0.4-0.5-0.7c-0.2-0.3-0.4-0.5-0.5-0.7c-0.3-0.4-0.4-0.9-0.5-1.5c-0.1-0.6-0.2-1.2-0.4-1.8
			c-0.1-0.6-0.3-1.1-0.5-1.7c-0.2-0.6-0.3-1.2-0.2-1.8c0.1-0.4,0.1-0.8,0.3-1.2c0.1-0.4,0.2-0.8,0.4-1.2c0.3-0.7,0.6-1.4,0.8-2
			c0.2-0.6,0.4-1.2,0.7-1.8c0.2-0.3,0.3-0.5,0.5-0.6c0.2-0.2,0.4-0.4,0.5-0.6c0.1-0.1,0.2-0.3,0.2-0.5c0-0.2,0.1-0.4,0.2-0.5
			c0.4-0.5,0.9-0.9,1.3-1.4c0.5-0.5,0.9-1,1.2-1.6c0.3-0.4,0.5-0.7,0.8-1c0.3-0.3,0.6-0.6,0.8-1c0.3-0.4,0.5-0.7,0.7-0.7
			c0.1-0.1,0.2-0.2,0.4-0.4c0.3-0.3,0.6-0.6,0.9-1c0.3-0.3,0.5-0.7,0.8-1.1c0.4-0.4,0.7-0.8,1.1-1.2c0.4-0.4,0.8-0.8,1.2-1
			c0.5-0.3,0.9-0.5,1.4-0.7c0.5-0.2,1-0.4,1.6-0.7c0.3-0.1,0.5-0.2,0.7-0.4s0.5-0.3,0.7-0.4c0.3-0.1,0.6-0.2,0.9-0.2
			c0.3-0.1,0.5-0.2,0.7-0.4c0.3,0.1,0.6,0,0.9-0.2c0.3-0.2,0.5-0.3,0.8-0.4c0.3-0.1,0.5-0.1,0.7,0c0.2,0.1,0.4,0,0.6-0.2
			c0.2,0.1,0.3,0.2,0.5,0.2c0.2,0,0.3,0.1,0.4,0.2c0.2,0.1,0.4,0.2,0.6,0.4c0.2,0.2,0.3,0.4,0.4,0.7c0.1,0.8-0.1,1.6-0.6,2.4
			c-0.5,0.8-0.9,1.5-1.3,1.9c-0.3,0.4-0.5,0.8-0.9,1.1c-0.3,0.3-0.7,0.6-1.1,0.8c-0.6,0-1.3,0-1.9,0.1c-0.7,0.1-1.2,0.1-1.8,0
			c-0.1,0.2-0.2,0.4-0.4,0.4c-0.2,0.1-0.2,0.2-0.1,0.4c-1.8,1.5-3.3,3.1-4.7,4.8c-1.4,1.7-2.4,3.7-3.2,6c-0.3,0.9-0.5,1.5-0.8,1.9
			c-0.3,0.4-0.4,0.8-0.4,1.2c0.3,1.1,0.8,2,1.6,2.8c0.7,0.8,1.5,1.2,2.2,1.3c0.8,0.1,1.6-0.1,2.2-0.5c0.7-0.4,1.3-0.8,1.8-1.1
			c0.7-0.5,1.4-1,2.1-1.4c0.7-0.4,1.4-0.9,2.2-1.3c0.2-0.1,0.4-0.2,0.6-0.4c0.2-0.1,0.4-0.3,0.6-0.4c0.7-0.5,1.3-0.9,1.8-1.4
			c0.5-0.4,1.1-0.9,1.7-1.3c0.3-0.1,0.5-0.1,0.6-0.3c0.1-0.1,0.3-0.2,0.6-0.2c0.9-0.8,2-1.6,3-2.2c1.1-0.7,2.2-1.3,3.4-2
			c0.4-0.4,0.7-0.7,1.1-1c0.4-0.3,0.8-0.6,1.1-1c0.4,0,0.6-0.1,0.8-0.3C130.2,41.7,130.4,41.7,130.8,41.7z"/>
		<path class="st0" d="M163.9,37c0.3,0.1,0.4,0.2,0.5,0.3s0.2,0.2,0.4,0.2c0.1,0.3,0,0.5,0,0.6s-0.2,0.3-0.3,0.4
			c-0.1,0.1-0.2,0.3-0.3,0.4c-0.1,0.1-0.1,0.3,0,0.5c-0.5,0.3-1,0.5-1.7,0.6c-0.7,0.1-1.2,0.4-1.6,0.8c-0.9,0.4-1.8,0.7-2.9,0.8
			c-1,0.1-2.1,0.3-3.2,0.5c-0.5,0.4-0.9,0.6-1.1,0.6c-0.2,0.1-0.4,0.1-0.6,0.2c-0.5-0.2-1.1-0.3-1.6-0.3c-0.6,0-1.1-0.1-1.7-0.2
			c-0.3,0.1-0.6,0.2-0.9,0.2c-0.3,0-0.6,0.1-0.9,0.2c-0.2,0.4-0.3,0.9-0.3,1.4c0,0.5-0.1,1-0.2,1.4l-0.5,0.9
			c-0.1,0.3-0.1,0.5-0.1,0.7c0,0.2-0.1,0.5-0.2,0.7c-0.1,0.2-0.2,0.3-0.4,0.5c-0.1,0.2-0.2,0.4-0.2,0.7c-0.4,0.4-0.6,0.9-0.8,1.4
			s-0.4,1-0.9,1.4c-0.2,0.5-0.4,0.9-0.7,1.2c-0.3,0.3-0.7,0.7-1,1.1c-0.6,0.8-1.1,1.5-1.5,2c-0.4,0.6-1,1.1-1.8,1.5
			c-0.3,0.4-0.6,0.7-0.9,0.9c-0.3,0.3-0.5,0.6-0.6,0.8c-0.5,0.3-1,0.6-1.6,0.9c-0.6,0.4-1.2,0.6-1.8,0.8c-0.9,0.2-1.7,0.2-2.6-0.1
			c-0.8-0.3-1.6-0.6-2.3-1.1c-0.5,0.1-0.8,0-1.1-0.3c-0.3-0.2-0.6-0.4-1.1-0.5c-0.6-0.5-1.2-1-1.9-1.4c-0.7-0.4-1.2-1-1.5-1.7
			c-0.1-0.6-0.2-1.1-0.4-1.7c-0.1-0.6-0.2-1.1-0.4-1.6c-0.1-0.5-0.1-1,0-1.5c0.1-0.5,0.1-1,0-1.6c0-0.6,0-1.1,0-1.4
			c0-0.4,0.1-0.9,0.4-1.4c0.3-0.7,0.5-1.2,0.6-1.7c0.1-0.4,0.2-0.8,0.3-1.1c0.2-0.3,0.3-0.5,0.5-0.9s0.3-0.6,0.5-0.9
			c0.3-0.5,0.7-0.9,1.1-1.4c0.4-0.5,0.8-0.9,1.2-1.3c0.3-0.4,0.6-0.8,0.9-1c0.4-0.4,0.9-0.8,1.3-1.2c0.5-0.4,0.9-0.8,1.4-1.2
			c0.1-0.2,0.2-0.3,0.4-0.4c0.2-0.1,0.3-0.2,0.5-0.3c0.5-0.3,1-0.6,1.4-0.8c0.4-0.2,0.9-0.4,1.5-0.7c0.4-0.2,0.8-0.4,1.2-0.4
			s0.8-0.2,1.4-0.3c0.4,0,0.7,0,0.9,0c0.3,0,0.5-0.1,0.8-0.2c-0.2-0.4,0-0.7,0.5-0.9c0.5-0.2,0.9-0.2,1.2-0.2c0.5,0,0.9,0.1,1.2,0.4
			s0.6,0.5,0.9,0.8c0.6,0.4,1.1,1,1.7,1.6c0.1,0.1,0.2,0.2,0.4,0.2c0.2,0.1,0.3,0.1,0.4,0.2c0.2,0.3,0.4,0.5,0.4,0.9
			s0.2,0.6,0.5,0.9c0.2,0.1,0.3,0.2,0.5,0.4s0.3,0.4,0.3,0.6c0.3,0.1,0.5,0.2,0.7,0.3s0.5,0.1,0.7,0.2c0.3,0.1,0.5,0.1,0.8,0.1
			c0.3-0.1,0.6-0.1,1,0c0.3,0.1,0.5,0.1,0.7,0.2c0.2,0.1,0.4,0.1,0.7,0.1c0.4-0.1,0.8-0.2,1.3-0.3c0.4-0.2,0.9-0.2,1.5-0.1
			c0.8,0.2,1.6,0.1,2.5-0.2c0.9-0.4,1.7-0.6,2.6-0.7c0.2,0,0.4,0,0.5,0c0.2,0,0.3,0,0.5,0c0.3-0.2,0.6-0.4,1-0.5
			C163,37.2,163.4,37.1,163.9,37z M141.5,39.4c-0.5-0.5-0.8-0.8-0.9-0.9c-0.1-0.1-0.2-0.2-0.3-0.3c-0.2-0.2-0.5-0.3-0.8-0.4
			c-0.3-0.1-0.6-0.1-0.9-0.2c-0.8-0.2-1.5-0.1-2.1,0.3c-0.5,0.3-1.1,0.7-1.6,1c-0.8,0.5-1.6,1.2-2.2,2c-0.2,0.3-0.3,0.5-0.5,0.9
			c-0.2,0.3-0.3,0.7-0.4,1c-0.2,0.4-0.4,0.8-0.5,1.1c-0.2,0.3-0.3,0.7-0.4,1.2c-0.3,0.5-0.4,1-0.5,1.3c-0.1,0.3-0.1,0.6-0.2,0.9
			c-0.1,0.5-0.1,1.1-0.3,1.6c-0.1,0.6-0.2,1.1-0.2,1.5c0.1,0.2,0.1,0.4,0.2,0.6c0.1,0.3,0.2,0.4,0.3,0.5c0.1,0.3,0.2,0.5,0.4,0.9
			c0.1,0.3,0.2,0.5,0.4,0.7c0.3,0.4,0.6,0.6,1,0.7c0.4,0.1,0.9,0.2,1.4,0.4c0.6,0.3,1,0.4,1.2,0.4c0.2-0.1,0.4-0.1,0.5-0.1
			c0.7-0.1,1.3-0.4,1.8-0.9c0.5-0.5,1-0.8,1.6-1.1c0.4-0.6,0.9-1.3,1.4-2c0.5-0.7,0.9-1.4,1.4-2.1c0.2-0.2,0.3-0.4,0.4-0.7
			c0.1-0.3,0.2-0.5,0.3-0.7c0.4-0.4,0.5-0.7,0.5-0.7c0-0.1,0-0.1,0-0.2c0.4-0.8,0.5-1.4,0.5-1.8c-0.1-0.4-0.1-0.8,0-1.2
			c-0.3-0.6-0.5-1.2-0.7-1.9C142.2,40.5,141.9,39.9,141.5,39.4z"/>
		<path class="st0" d="M166.6,42c0.5-0.3,0.9-0.7,1.4-1c0.4-0.4,0.9-0.7,1.4-1.1c1.1-0.9,2.2-1.8,3.4-2.6c1.1-0.9,2.3-1.7,3.4-2.6
			c0.2-0.2,0.4-0.4,0.7-0.6c0.6-0.3,0.9-0.5,0.9-0.6c0-0.1,0.1-0.1,0.2-0.2c0.2-0.1,0.5-0.1,0.7,0c0.3,0.1,0.6,0.1,0.8,0
			c0.7-0.2,1.4-0.2,2.1,0c0.7,0.2,1.2,0.3,1.4,0.4c0.3-0.1,0.5-0.2,0.7-0.2c0.2,0,0.4-0.1,0.6-0.1c0.4,0,0.7,0.1,0.9,0.2
			c0.2,0.2,0.4,0.3,0.5,0.5c0,0.2,0,0.3,0,0.5c0,0.2,0,0.4-0.1,0.6c-0.5,0.5-1.1,0.9-1.6,1.4c-0.6,0.4-1.2,0.8-2,1.1
			c-0.8,0.4-1.3,0.8-1.6,1.1c-0.3,0.3-0.6,0.5-1.1,0.6c-0.8,0.4-1.5,0.8-2.1,1.2c-0.6,0.4-1.3,0.9-2,1.3c-0.8,0.6-1.7,1.2-2.6,1.8
			c-0.9,0.5-1.8,1.2-2.6,1.8c-0.3,0.2-0.5,0.4-0.7,0.5c-0.1,0.1-0.3,0.2-0.4,0.4c0.1,0.4,0.1,0.7,0.2,1c0.1,0.3,0.2,0.6,0.2,1.1
			c0.1,0.2,0.2,0.3,0.3,0.5c0.1,0.2,0.2,0.4,0.3,0.6c0.3,0.5,0.5,0.9,0.7,1.4c0.2,0.4,0.4,0.9,0.7,1.4c0.2,0.3,0.4,0.6,0.6,0.9
			c0.2,0.3,0.4,0.5,0.7,0.7c0.1,0.3,0.2,0.5,0.4,0.6c0.1,0.1,0.2,0.3,0.4,0.6c0.2,0.4,0.5,0.5,0.8,0.5c0.3,0,0.7-0.1,1-0.2
			c0.3-0.1,0.7-0.2,1.1-0.4c0.4-0.2,0.7-0.3,1-0.5c0.5-0.1,0.9-0.2,1.2-0.4c0.3-0.2,0.6-0.5,0.9-0.7c0.3-0.2,0.5-0.4,0.8-0.5
			c0.3-0.2,0.6-0.4,0.8-0.6c0.5-0.4,1-0.7,1.6-1.1c0.5-0.3,1.1-0.6,1.6-0.9c0.3-0.4,0.6-0.7,0.9-0.9c0.3-0.2,0.7-0.5,1-0.7
			c0.5-0.3,0.8-0.6,1.1-0.9c0.3-0.3,0.6-0.5,1-0.8c0.3-0.3,0.6-0.5,0.8-0.7c0.2-0.2,0.4-0.3,0.6-0.5c0.4-0.2,0.7-0.3,1-0.5
			c0.3-0.2,0.5-0.5,0.7-0.8c0.3,0,0.5-0.1,0.7-0.3c0.2-0.2,0.4-0.3,0.7-0.4c0.1,0.5,0.1,0.8,0,1.1c-0.1,0.3-0.2,0.5-0.4,0.7
			c-0.3,0.3-0.6,0.6-0.9,0.9c-0.3,0.3-0.7,0.5-1.1,0.7c-0.1,0.1-0.2,0.2-0.4,0.3c-0.1,0.1-0.2,0.2-0.4,0.3c-0.1,0.1-0.2,0.2-0.4,0.3
			c-0.1,0.1-0.2,0.2-0.4,0.3c-0.3,0.5-0.5,0.8-0.7,0.9c-0.2,0.1-0.4,0.3-0.5,0.5c-0.4,0.2-0.6,0.4-0.8,0.6c-0.2,0.2-0.5,0.4-0.9,0.7
			c-1.1,1-2,1.9-2.8,2.6s-1.6,1.4-2.5,2.1c-0.7,0.4-1.5,0.8-2.2,1.2c-0.7,0.4-1.5,0.8-2.3,1.3c-0.2,0.1-0.4,0.2-0.6,0.4
			c-0.2,0.2-0.4,0.3-0.5,0.3c-0.3,0.1-0.5,0.1-0.8,0.1c-0.3,0-0.6,0.1-0.8,0.4c-0.5,0.2-1.1,0.4-1.6,0.7c-0.6,0.3-1.1,0.4-1.6,0.3
			c-0.3-0.1-0.5-0.1-0.7-0.3c-0.2-0.1-0.4-0.2-0.7-0.1c-0.2-0.4-0.5-0.7-1-0.9c-0.5-0.2-0.7-0.6-0.5-1.2c-0.3-0.4-0.6-0.9-0.9-1.3
			c-0.3-0.5-0.5-0.9-0.8-1.3c0.1-0.7,0-1.2-0.3-1.6c-0.2-0.4-0.5-0.8-0.7-1.2c-0.1-0.2-0.1-0.3-0.2-0.5c-0.1-0.2-0.1-0.3-0.2-0.5
			c-0.1-0.3-0.2-0.5-0.4-0.7c-0.1-0.2-0.2-0.4-0.3-0.7c-0.6,0.3-1,0.6-1.2,0.8c-0.3,0.2-0.6,0.5-1.1,0.9c-0.3,0.2-0.5,0.4-0.7,0.5
			c-0.2,0.2-0.4,0.3-0.7,0.5c-0.6,0.4-1.1,0.7-1.5,1.1c-0.3,0.3-0.5,0.5-0.6,0.7c-0.2,0.2-0.4,0.4-0.6,0.5c-0.3,0.2-0.5,0.3-0.8,0.5
			c-0.3,0.2-0.6,0.3-0.8,0.5c-0.3,0.2-0.5,0.4-0.7,0.6c-0.2,0.2-0.4,0.4-0.7,0.6c-0.2,0.1-0.3,0.3-0.5,0.5c-0.2,0.2-0.3,0.4-0.5,0.5
			c-0.3,0.3-0.7,0.5-1,0.6c-0.4,0.2-0.7,0.4-1,0.6c-0.6,0.6-1.2,1.1-1.7,1.4c-0.5,0.3-1.1,0.5-1.8,0.4c-0.3-0.2-0.5-0.3-0.8-0.4
			c-0.3-0.1-0.6-0.2-0.8-0.3c-0.3-0.1-0.5-0.3-0.7-0.4s-0.4-0.3-0.4-0.4c0.2-0.2,0.4-0.4,0.6-0.5c0.2-0.1,0.4-0.3,0.7-0.4
			c0.6-0.6,1.2-1.1,1.8-1.4c0.6-0.4,1.2-0.8,1.8-1.2c0.4-0.3,0.7-0.6,1-0.9c0.2-0.4,0.6-0.7,1-1c0.2-0.4,0.4-0.6,0.7-0.8
			c0.1-0.1,0.2-0.2,0.4-0.4c0.1-0.2,0.2-0.3,0.4-0.4c0.6-0.3,0.9-0.5,0.9-0.5c0-0.1,0-0.1,0.1-0.2c0.4-0.3,0.7-0.6,0.9-0.9
			c0.2-0.1,0.3-0.2,0.5-0.4c0.2-0.1,0.4-0.3,0.6-0.4c0.5-0.4,1-0.8,1.4-1.1c0.4-0.3,0.9-0.7,1.4-1c0.3-0.3,0.5-0.5,0.9-0.7
			c0.3-0.2,0.6-0.4,0.9-0.6c0.3-0.6,0.4-1,0.2-1.2s-0.3-0.3-0.3-0.4c-0.1-0.2-0.1-0.4-0.1-0.7s0-0.5-0.1-0.7l-0.2-1.2
			c-0.1-0.4-0.2-0.8-0.3-1.1c-0.2-0.3-0.3-0.7-0.4-1.1c-0.1-0.3-0.2-0.6-0.3-1c-0.1-0.3-0.2-0.6-0.3-0.9c-0.1-0.3-0.2-0.7-0.3-1
			c-0.1-0.4-0.2-0.7-0.3-0.9c-0.2-0.3-0.3-0.5-0.3-0.6c-0.1-0.2,0-0.4,0.1-0.8c0.1-0.3,0.1-0.5,0.1-0.7c0-0.2,0.1-0.4,0.3-0.5
			c0.4-0.3,0.7-0.4,0.8-0.5c0.1-0.1,0.2-0.2,0.3-0.3c0.4-0.2,0.9-0.4,1.3-0.7c0.5-0.3,0.9-0.5,1.2-0.7c0.7-0.5,1.3-0.6,1.6-0.3
			c0.3,0.3,0.6,0.6,0.7,1.1c-0.3,0.6-0.4,1-0.4,1.2c0,0.2,0,0.3,0,0.5c-0.1,0.5-0.2,1-0.2,1.4s0.2,0.7,0.5,1c-0.1,0.2-0.1,0.4,0,0.5
			s0.2,0.3,0.3,0.4c0.2,0.9,0.4,1.7,0.8,2.3C165.9,40.6,166.2,41.3,166.6,42z"/>
	</g>
</g>
</svg>
